# xmcd
#
# Track frame offsets:
#	150
#	16559
#	31660
#	47803
#	61695
#	76757
#	94154
#	109653
#	123428
#	139939
#	157245
#
# Disc length: 2376 seconds
#
# Revision: 1
# Processed by: cddbd v1.5.1PL0 Copyright (c) Steve Scherf et al.
# Submitted via: audiograbber 1.83.01
#
DISCID=7f09460b
DTITLE=JJ and the foreign cowboys - Be The Wild In Me
DYEAR=2004
DGENRE=Country
TTITLE0=Be the Wild In Me
TTITLE1=Hold On
TTITLE2=When You Get Back
TTITLE3=It Ain't Shakespeare
TTITLE4=Gotta Run
TTITLE5=I Can't Stay
TTITLE6=Don't Remember Me
TTITLE7=Good Morning Darling
TTITLE8=If You're Gonna Hurt Me
TTITLE9=Sweet'n Low
TTITLE10=Misery
EXTD=
EXTT0=
EXTT1=
EXTT2=
EXTT3=
EXTT4=
EXTT5=
EXTT6=
EXTT7=
EXTT8=
EXTT9=
EXTT10=
PLAYORDER=
